<?xml version="1.0" encoding="utf-8" standalone="no"?>
<!DOCTYPE svg PUBLIC "-//W3C//DTD SVG 1.1//EN"
  "http://www.w3.org/Graphics/SVG/1.1/DTD/svg11.dtd">
<svg xmlns:xlink="http://www.w3.org/1999/xlink" width="1152pt" height="403.2pt" viewBox="0 0 1152 403.2" xmlns="http://www.w3.org/2000/svg" version="1.1">
 <metadata>
  <rdf:RDF xmlns:dc="http://purl.org/dc/elements/1.1/" xmlns:cc="http://creativecommons.org/ns#" xmlns:rdf="http://www.w3.org/1999/02/22-rdf-syntax-ns#">
   <cc:Work>
    <dc:type rdf:resource="http://purl.org/dc/dcmitype/StillImage"/>
    <dc:date>2025-06-14T21:26:50.954624</dc:date>
    <dc:format>image/svg+xml</dc:format>
    <dc:creator>
     <cc:Agent>
      <dc:title>Matplotlib v3.10.3, https://matplotlib.org/</dc:title>
     </cc:Agent>
    </dc:creator>
   </cc:Work>
  </rdf:RDF>
 </metadata>
 <defs>
  <style type="text/css">*{stroke-linejoin: round; stroke-linecap: butt}</style>
 </defs>
 <g id="figure_1">
  <g id="patch_1">
   <path d="M 0 403.2 
L 1152 403.2 
L 1152 0 
L 0 0 
L 0 403.2 
z
" style="fill: none"/>
  </g>
  <g id="axes_1">
   <g id="line2d_1">
    <path d="M 23.277273 110.055125 
L 24.248267 31.997739 
L 147.564503 31.997739 
L 148.535497 188.112512 
L 271.851733 188.112512 
L 272.822727 110.055125 
L 272.822727 110.055125 
" clip-path="url(#p66abc7743c)" style="fill: none; stroke: #8000ff; stroke-width: 2; stroke-linecap: square"/>
   </g>
   <g id="text_1">
    <!-- Haar (haar) -->
    <g style="fill: #8000ff" transform="translate(115.567187 18.192) scale(0.1 -0.1)">
     <defs>
      <path id="DejaVuSans-Bold-48" d="M 588 4666 
L 1791 4666 
L 1791 2888 
L 3566 2888 
L 3566 4666 
L 4769 4666 
L 4769 0 
L 3566 0 
L 3566 1978 
L 1791 1978 
L 1791 0 
L 588 0 
L 588 4666 
z
" transform="scale(0.015625)"/>
      <path id="DejaVuSans-Bold-61" d="M 2106 1575 
Q 1756 1575 1579 1456 
Q 1403 1338 1403 1106 
Q 1403 894 1545 773 
Q 1688 653 1941 653 
Q 2256 653 2472 879 
Q 2688 1106 2688 1447 
L 2688 1575 
L 2106 1575 
z
M 3816 1997 
L 3816 0 
L 2688 0 
L 2688 519 
Q 2463 200 2181 54 
Q 1900 -91 1497 -91 
Q 953 -91 614 226 
Q 275 544 275 1050 
Q 275 1666 698 1953 
Q 1122 2241 2028 2241 
L 2688 2241 
L 2688 2328 
Q 2688 2594 2478 2717 
Q 2269 2841 1825 2841 
Q 1466 2841 1156 2769 
Q 847 2697 581 2553 
L 581 3406 
Q 941 3494 1303 3539 
Q 1666 3584 2028 3584 
Q 2975 3584 3395 3211 
Q 3816 2838 3816 1997 
z
" transform="scale(0.015625)"/>
      <path id="DejaVuSans-Bold-72" d="M 3138 2547 
Q 2991 2616 2845 2648 
Q 2700 2681 2553 2681 
Q 2122 2681 1889 2404 
Q 1656 2128 1656 1613 
L 1656 0 
L 538 0 
L 538 3500 
L 1656 3500 
L 1656 2925 
Q 1872 3269 2151 3426 
Q 2431 3584 2822 3584 
Q 2878 3584 2943 3579 
Q 3009 3575 3134 3559 
L 3138 2547 
z
" transform="scale(0.015625)"/>
      <path id="DejaVuSans-Bold-20" transform="scale(0.015625)"/>
      <path id="DejaVuSans-Bold-28" d="M 2413 -844 
L 1484 -844 
Q 1006 -72 778 623 
Q 550 1319 550 2003 
Q 550 2688 779 3389 
Q 1009 4091 1484 4856 
L 2413 4856 
Q 2013 4116 1813 3408 
Q 1613 2700 1613 2009 
Q 1613 1319 1811 609 
Q 2009 -100 2413 -844 
z
" transform="scale(0.015625)"/>
      <path id="DejaVuSans-Bold-68" d="M 4056 2131 
L 4056 0 
L 2931 0 
L 2931 347 
L 2931 1625 
Q 2931 2084 2911 2256 
Q 2891 2428 2841 2509 
Q 2775 2619 2662 2680 
Q 2550 2741 2406 2741 
Q 2056 2741 1856 2470 
Q 1656 2200 1656 1722 
L 1656 0 
L 538 0 
L 538 4863 
L 1656 4863 
L 1656 2988 
Q 1909 3294 2193 3439 
Q 2478 3584 2822 3584 
Q 3428 3584 3742 3212 
Q 4056 2841 4056 2131 
z
" transform="scale(0.015625)"/>
      <path id="DejaVuSans-Bold-29" d="M 513 -844 
Q 913 -100 1113 609 
Q 1313 1319 1313 2009 
Q 1313 2700 1113 3408 
Q 913 4116 513 4856 
L 1441 4856 
Q 1916 4091 2145 3389 
Q 2375 2688 2375 2003 
Q 2375 1319 2147 623 
Q 1919 -72 1441 -844 
L 513 -844 
z
" transform="scale(0.015625)"/>
     </defs>
     <use xlink:href="#DejaVuSans-Bold-48"/>
     <use xlink:href="#DejaVuSans-Bold-61" transform="translate(83.691406 0)"/>
     <use xlink:href="#DejaVuSans-Bold-61" transform="translate(151.171875 0)"/>
     <use xlink:href="#DejaVuSans-Bold-72" transform="translate(218.652344 0)"/>
     <use xlink:href="#DejaVuSans-Bold-20" transform="translate(267.96875 0)"/>
     <use xlink:href="#DejaVuSans-Bold-28" transform="translate(302.783203 0)"/>
     <use xlink:href="#DejaVuSans-Bold-68" transform="translate(348.486328 0)"/>
     <use xlink:href="#DejaVuSans-Bold-61" transform="translate(419.677734 0)"/>
     <use xlink:href="#DejaVuSans-Bold-61" transform="translate(487.158203 0)"/>
     <use xlink:href="#DejaVuSans-Bold-72" transform="translate(554.638672 0)"/>
     <use xlink:href="#DejaVuSans-Bold-29" transform="translate(603.955078 0)"/>
    </g>
   </g>
  </g>
  <g id="axes_2">
   <g id="line2d_2">
    <path d="M 308.577273 119.332491 
L 309.227131 120.443574 
L 310.201918 121.256944 
L 311.501634 122.070313 
L 312.47642 122.527571 
L 313.776136 123.291578 
L 314.425994 123.362316 
L 316.375568 124.053163 
L 318.325142 124.907748 
L 318.975 125.178359 
L 319.624858 125.150371 
L 321.574432 125.545039 
L 323.199077 126.020366 
L 325.148651 126.632976 
L 328.722869 127.730357 
L 329.372727 127.927573 
L 330.022585 127.827312 
L 331.972159 128.005162 
L 333.596804 128.299806 
L 335.221449 128.62486 
L 350.493111 131.843406 
L 351.467898 131.76251 
L 357.641548 132.371686 
L 363.815199 133.256315 
L 373.563068 134.822821 
L 391.759091 137.814949 
L 392.408949 128.000786 
L 393.383736 120.89758 
L 394.033594 116.700538 
L 394.358523 114.506597 
L 394.683452 113.847282 
L 395.008381 112.776765 
L 396.633026 104.905835 
L 396.957955 103.313935 
L 397.282884 103.256661 
L 397.607813 102.788186 
L 398.582599 99.958314 
L 400.207244 94.245663 
L 402.156818 87.314881 
L 402.481747 87.698332 
L 402.806676 87.670581 
L 403.456534 86.902857 
L 404.106392 85.533092 
L 404.75625 84.464347 
L 405.731037 81.913884 
L 407.030753 79.077873 
L 407.355682 78.367423 
L 408.330469 75.33301 
L 409.955114 70.979968 
L 411.579759 66.951677 
L 412.554545 64.46238 
L 412.879474 65.168463 
L 413.204403 65.463345 
L 413.854261 65.340887 
L 414.504119 64.616387 
L 415.153977 64.192909 
L 415.803835 63.027684 
L 417.753409 60.677048 
L 418.403267 59.189191 
L 420.352841 55.870656 
L 421.652557 53.975141 
L 422.952273 51.934131 
L 423.92706 49.513341 
L 425.226776 46.850229 
L 426.526491 44.423301 
L 430.425639 37.347058 
L 433.35 31.997739 
L 433.999858 51.248405 
L 434.974645 64.431069 
L 435.624503 72.110337 
L 435.949432 76.146538 
L 436.274361 77.021374 
L 436.59929 78.743295 
L 437.899006 89.805588 
L 438.548864 95.336734 
L 438.873793 94.971351 
L 439.198722 95.453054 
L 440.173509 99.83255 
L 441.473224 107.008029 
L 442.448011 113.142514 
L 443.747727 120.561264 
L 444.072656 119.287978 
L 444.397585 118.861778 
L 444.722514 119.282662 
L 445.047443 119.476571 
L 445.697301 121.331583 
L 446.347159 122.566485 
L 446.997017 125.3294 
L 448.946591 131.259344 
L 449.596449 134.68689 
L 451.546023 142.610728 
L 452.845739 147.240584 
L 454.145455 152.170164 
L 454.470384 150.232247 
L 454.795312 149.141415 
L 455.120241 148.897668 
L 455.44517 148.426946 
L 455.770099 148.803309 
L 456.095028 148.952695 
L 456.744886 148.858336 
L 457.394744 150.291988 
L 458.369531 151.315736 
L 459.344318 152.234144 
L 459.994176 154.332428 
L 461.618821 157.620618 
L 462.268679 158.689363 
L 463.243466 160.23981 
L 464.543182 162.510865 
L 465.19304 165.095693 
L 467.142614 170.491374 
L 468.117401 172.666297 
L 470.716832 178.587728 
L 472.341477 182.156149 
L 474.940909 188.112512 
L 475.590767 174.110925 
L 476.565554 164.992862 
L 477.215412 159.754114 
L 477.540341 156.985882 
L 477.86527 156.611703 
L 478.190199 155.596039 
L 479.164986 150.326882 
L 480.139773 144.76001 
L 480.464702 145.325029 
L 480.789631 145.248564 
L 481.439489 143.984549 
L 482.089347 141.781337 
L 482.739205 140.047723 
L 483.713991 135.969421 
L 485.013707 131.412486 
L 485.338636 130.270994 
L 485.663565 131.523553 
L 485.988494 132.134629 
L 486.313423 132.10422 
L 486.638352 132.245696 
L 487.28821 131.417565 
L 487.938068 131.059033 
L 488.587926 129.543361 
L 490.212571 127.236581 
L 490.5375 126.78263 
L 491.187358 124.763643 
L 493.136932 120.492967 
L 494.111719 118.753626 
L 495.736364 115.560318 
L 496.061293 117.316192 
L 496.386222 118.430582 
L 497.03608 119.548279 
L 497.361009 119.551586 
L 497.685937 119.726777 
L 498.335795 120.374875 
L 498.660724 120.034411 
L 498.985653 119.865833 
L 499.96044 119.955525 
L 500.935227 120.12499 
L 501.585085 119.112633 
L 502.559872 118.447353 
L 503.859588 117.831436 
L 504.834375 117.522268 
L 506.134091 116.955714 
L 506.783949 115.574905 
L 508.083665 114.004143 
L 508.733523 113.218762 
L 509.383381 112.743436 
L 511.657884 110.691619 
L 512.63267 110.032067 
L 516.531818 106.794237 
L 517.181676 110.401405 
L 518.156463 112.627764 
L 518.806321 113.886937 
L 519.13125 114.55641 
L 519.456179 114.584398 
L 519.781108 114.784272 
L 521.080824 116.430851 
L 521.730682 117.25414 
L 522.055611 117.030471 
L 522.38054 116.978687 
L 523.355327 117.418764 
L 524.655043 118.276655 
L 525.62983 119.072842 
L 526.929545 119.980097 
L 527.579403 119.336192 
L 528.55419 119.22359 
L 529.853906 119.344577 
L 530.828693 119.588087 
L 532.128409 119.758437 
L 532.778267 120.154877 
L 534.727841 120.865565 
L 536.352486 121.311369 
L 537.327273 121.609083 
L 537.977131 120.695452 
L 538.951918 120.178262 
L 540.251634 119.759798 
L 541.22642 119.598719 
L 542.526136 119.229618 
L 543.175994 119.356333 
L 545.125568 119.257844 
L 546.750213 119.029334 
L 547.725 118.922459 
L 548.374858 119.1479 
L 550.324432 119.345591 
L 551.949077 119.363896 
L 553.573722 119.351793 
L 558.122727 119.332491 
L 558.122727 119.332491 
" clip-path="url(#p1e8c5f1dcc)" style="fill: none; stroke: #386df9; stroke-width: 2; stroke-linecap: square"/>
   </g>
   <g id="text_2">
    <!-- Daubechies 2 (db2) -->
    <g style="fill: #386df9" transform="translate(378.523437 18.192) scale(0.1 -0.1)">
     <defs>
      <path id="DejaVuSans-Bold-44" d="M 1791 3756 
L 1791 909 
L 2222 909 
Q 2959 909 3348 1275 
Q 3738 1641 3738 2338 
Q 3738 3031 3350 3393 
Q 2963 3756 2222 3756 
L 1791 3756 
z
M 588 4666 
L 1856 4666 
Q 2919 4666 3439 4514 
Q 3959 4363 4331 4000 
Q 4659 3684 4818 3271 
Q 4978 2859 4978 2338 
Q 4978 1809 4818 1395 
Q 4659 981 4331 666 
Q 3956 303 3431 151 
Q 2906 0 1856 0 
L 588 0 
L 588 4666 
z
" transform="scale(0.015625)"/>
      <path id="DejaVuSans-Bold-75" d="M 500 1363 
L 500 3500 
L 1625 3500 
L 1625 3150 
Q 1625 2866 1622 2436 
Q 1619 2006 1619 1863 
Q 1619 1441 1641 1255 
Q 1663 1069 1716 984 
Q 1784 875 1895 815 
Q 2006 756 2150 756 
Q 2500 756 2700 1025 
Q 2900 1294 2900 1772 
L 2900 3500 
L 4019 3500 
L 4019 0 
L 2900 0 
L 2900 506 
Q 2647 200 2364 54 
Q 2081 -91 1741 -91 
Q 1134 -91 817 281 
Q 500 653 500 1363 
z
" transform="scale(0.015625)"/>
      <path id="DejaVuSans-Bold-62" d="M 2400 722 
Q 2759 722 2948 984 
Q 3138 1247 3138 1747 
Q 3138 2247 2948 2509 
Q 2759 2772 2400 2772 
Q 2041 2772 1848 2508 
Q 1656 2244 1656 1747 
Q 1656 1250 1848 986 
Q 2041 722 2400 722 
z
M 1656 2988 
Q 1888 3294 2169 3439 
Q 2450 3584 2816 3584 
Q 3463 3584 3878 3070 
Q 4294 2556 4294 1747 
Q 4294 938 3878 423 
Q 3463 -91 2816 -91 
Q 2450 -91 2169 54 
Q 1888 200 1656 506 
L 1656 0 
L 538 0 
L 538 4863 
L 1656 4863 
L 1656 2988 
z
" transform="scale(0.015625)"/>
      <path id="DejaVuSans-Bold-65" d="M 4031 1759 
L 4031 1441 
L 1416 1441 
Q 1456 1047 1700 850 
Q 1944 653 2381 653 
Q 2734 653 3104 758 
Q 3475 863 3866 1075 
L 3866 213 
Q 3469 63 3072 -14 
Q 2675 -91 2278 -91 
Q 1328 -91 801 392 
Q 275 875 275 1747 
Q 275 2603 792 3093 
Q 1309 3584 2216 3584 
Q 3041 3584 3536 3087 
Q 4031 2591 4031 1759 
z
M 2881 2131 
Q 2881 2450 2695 2645 
Q 2509 2841 2209 2841 
Q 1884 2841 1681 2658 
Q 1478 2475 1428 2131 
L 2881 2131 
z
" transform="scale(0.015625)"/>
      <path id="DejaVuSans-Bold-63" d="M 3366 3391 
L 3366 2478 
Q 3138 2634 2908 2709 
Q 2678 2784 2431 2784 
Q 1963 2784 1702 2511 
Q 1441 2238 1441 1747 
Q 1441 1256 1702 982 
Q 1963 709 2431 709 
Q 2694 709 2930 787 
Q 3166 866 3366 1019 
L 3366 103 
Q 3103 6 2833 -42 
Q 2563 -91 2291 -91 
Q 1344 -91 809 395 
Q 275 881 275 1747 
Q 275 2613 809 3098 
Q 1344 3584 2291 3584 
Q 2566 3584 2833 3536 
Q 3100 3488 3366 3391 
z
" transform="scale(0.015625)"/>
      <path id="DejaVuSans-Bold-69" d="M 538 3500 
L 1656 3500 
L 1656 0 
L 538 0 
L 538 3500 
z
M 538 4863 
L 1656 4863 
L 1656 3950 
L 538 3950 
L 538 4863 
z
" transform="scale(0.015625)"/>
      <path id="DejaVuSans-Bold-73" d="M 3272 3391 
L 3272 2541 
Q 2913 2691 2578 2766 
Q 2244 2841 1947 2841 
Q 1628 2841 1473 2761 
Q 1319 2681 1319 2516 
Q 1319 2381 1436 2309 
Q 1553 2238 1856 2203 
L 2053 2175 
Q 2913 2066 3209 1816 
Q 3506 1566 3506 1031 
Q 3506 472 3093 190 
Q 2681 -91 1863 -91 
Q 1516 -91 1145 -36 
Q 775 19 384 128 
L 384 978 
Q 719 816 1070 734 
Q 1422 653 1784 653 
Q 2113 653 2278 743 
Q 2444 834 2444 1013 
Q 2444 1163 2330 1236 
Q 2216 1309 1875 1350 
L 1678 1375 
Q 931 1469 631 1722 
Q 331 1975 331 2491 
Q 331 3047 712 3315 
Q 1094 3584 1881 3584 
Q 2191 3584 2531 3537 
Q 2872 3491 3272 3391 
z
" transform="scale(0.015625)"/>
      <path id="DejaVuSans-Bold-32" d="M 1844 884 
L 3897 884 
L 3897 0 
L 506 0 
L 506 884 
L 2209 2388 
Q 2438 2594 2547 2791 
Q 2656 2988 2656 3200 
Q 2656 3528 2436 3728 
Q 2216 3928 1850 3928 
Q 1569 3928 1234 3808 
Q 900 3688 519 3450 
L 519 4475 
Q 925 4609 1322 4679 
Q 1719 4750 2100 4750 
Q 2938 4750 3402 4381 
Q 3866 4013 3866 3353 
Q 3866 2972 3669 2642 
Q 3472 2313 2841 1759 
L 1844 884 
z
" transform="scale(0.015625)"/>
      <path id="DejaVuSans-Bold-64" d="M 2919 2988 
L 2919 4863 
L 4044 4863 
L 4044 0 
L 2919 0 
L 2919 506 
Q 2688 197 2409 53 
Q 2131 -91 1766 -91 
Q 1119 -91 703 423 
Q 288 938 288 1747 
Q 288 2556 703 3070 
Q 1119 3584 1766 3584 
Q 2128 3584 2408 3439 
Q 2688 3294 2919 2988 
z
M 2181 722 
Q 2541 722 2730 984 
Q 2919 1247 2919 1747 
Q 2919 2247 2730 2509 
Q 2541 2772 2181 2772 
Q 1825 2772 1636 2509 
Q 1447 2247 1447 1747 
Q 1447 1247 1636 984 
Q 1825 722 2181 722 
z
" transform="scale(0.015625)"/>
     </defs>
     <use xlink:href="#DejaVuSans-Bold-44"/>
     <use xlink:href="#DejaVuSans-Bold-61" transform="translate(83.007812 0)"/>
     <use xlink:href="#DejaVuSans-Bold-75" transform="translate(150.488281 0)"/>
     <use xlink:href="#DejaVuSans-Bold-62" transform="translate(221.679688 0)"/>
     <use xlink:href="#DejaVuSans-Bold-65" transform="translate(293.261719 0)"/>
     <use xlink:href="#DejaVuSans-Bold-63" transform="translate(361.083984 0)"/>
     <use xlink:href="#DejaVuSans-Bold-68" transform="translate(420.361328 0)"/>
     <use xlink:href="#DejaVuSans-Bold-69" transform="translate(491.552734 0)"/>
     <use xlink:href="#DejaVuSans-Bold-65" transform="translate(525.830078 0)"/>
     <use xlink:href="#DejaVuSans-Bold-73" transform="translate(593.652344 0)"/>
     <use xlink:href="#DejaVuSans-Bold-20" transform="translate(653.173828 0)"/>
     <use xlink:href="#DejaVuSans-Bold-32" transform="translate(687.988281 0)"/>
     <use xlink:href="#DejaVuSans-Bold-20" transform="translate(757.568359 0)"/>
     <use xlink:href="#DejaVuSans-Bold-28" transform="translate(792.382812 0)"/>
     <use xlink:href="#DejaVuSans-Bold-64" transform="translate(838.085938 0)"/>
     <use xlink:href="#DejaVuSans-Bold-62" transform="translate(909.667969 0)"/>
     <use xlink:href="#DejaVuSans-Bold-32" transform="translate(981.25 0)"/>
     <use xlink:href="#DejaVuSans-Bold-29" transform="translate(1050.830078 0)"/>
    </g>
   </g>
  </g>
  <g id="axes_3">
   <g id="line2d_3">
    <path d="M 593.877273 124.855621 
L 598.611952 124.976683 
L 605.574716 125.370856 
L 612.119714 125.928451 
L 623.260136 127.120987 
L 631.336942 128.075754 
L 633.425771 127.842237 
L 636.489387 127.138302 
L 638.299706 126.476332 
L 644.148427 123.872745 
L 646.515767 122.376204 
L 656.681402 115.252326 
L 658.909487 113.310505 
L 661.416082 110.855005 
L 664.758208 107.33683 
L 665.732995 106.406452 
L 666.429272 106.069354 
L 667.125548 105.894611 
L 668.378845 105.951469 
L 668.935866 106.106865 
L 670.328419 106.908771 
L 671.999483 108.064664 
L 672.835014 108.975072 
L 674.645333 111.523001 
L 677.291183 115.378177 
L 679.380012 119.011704 
L 680.772565 122.198213 
L 682.861394 127.638746 
L 684.393202 131.678025 
L 689.684903 145.399345 
L 693.30554 155.856606 
L 695.115858 162.240614 
L 696.926177 169.291995 
L 699.850538 181.212334 
L 701.243091 186.818419 
L 701.800112 187.77426 
L 702.496388 188.112512 
L 702.774899 187.957784 
L 703.471175 187.034185 
L 704.028196 186.08145 
L 704.445962 185.04511 
L 705.002983 182.95301 
L 707.370323 172.141184 
L 707.927344 168.912285 
L 708.902131 161.596578 
L 710.851705 144.913852 
L 712.662023 128.928521 
L 714.611597 109.629814 
L 716.00415 92.356238 
L 718.092979 62.316122 
L 719.207021 46.613641 
L 719.903297 40.647859 
L 720.460319 37.038629 
L 721.01734 35.208098 
L 721.852871 32.612395 
L 722.131382 32.037165 
L 722.409892 32.058247 
L 722.827658 32.733813 
L 723.66319 34.639499 
L 724.498722 36.306406 
L 725.473509 39.221125 
L 726.03053 42.598833 
L 726.726806 48.458397 
L 727.562338 56.872558 
L 728.258614 63.136676 
L 729.511912 72.407177 
L 730.625954 80.53148 
L 731.879251 89.880967 
L 732.297017 93.172041 
L 732.993293 100.677689 
L 734.246591 117.745087 
L 737.310207 162.469433 
L 738.145739 169.305912 
L 738.563504 171.452065 
L 738.98127 173.130195 
L 739.956057 177.229302 
L 740.234568 177.648461 
L 740.652334 177.670158 
L 741.34861 177.211827 
L 741.627121 177.274306 
L 742.601907 176.861061 
L 743.298184 176.167703 
L 743.71595 174.642128 
L 744.272971 171.494156 
L 745.247758 164.421553 
L 745.804779 160.399582 
L 746.3618 157.917827 
L 746.918821 156.074833 
L 747.336587 154.853977 
L 748.032863 153.378604 
L 749.00765 150.721683 
L 749.564671 150.081954 
L 749.982437 149.68973 
L 750.400203 148.213491 
L 750.957224 145.315514 
L 751.792756 139.789437 
L 752.906798 131.405778 
L 753.74233 125.262473 
L 754.717116 117.755548 
L 755.552648 113.784172 
L 756.109669 111.893926 
L 757.780733 108.640599 
L 758.059243 108.432577 
L 758.616264 108.454463 
L 759.03403 108.614869 
L 760.008817 108.840083 
L 760.844349 109.44684 
L 761.122859 109.74121 
L 761.540625 110.668087 
L 762.097646 112.470094 
L 763.072433 116.531285 
L 763.490199 118.305572 
L 764.04722 119.653776 
L 764.882752 120.657406 
L 765.161262 120.774428 
L 765.857539 120.804609 
L 766.69307 121.12586 
L 766.971581 120.97302 
L 767.946368 120.000062 
L 768.224878 120.120124 
L 768.642644 120.493039 
L 769.617431 122.140592 
L 770.313707 123.692298 
L 771.845515 125.979596 
L 772.681047 127.24509 
L 773.516579 128.049483 
L 774.0736 128.339739 
L 774.909131 128.609914 
L 775.883918 129.021774 
L 777.137216 129.039471 
L 777.972748 128.763181 
L 778.808279 128.30332 
L 779.504556 127.672175 
L 780.340087 126.609623 
L 781.73264 124.740199 
L 782.150406 124.534457 
L 782.985938 124.321177 
L 784.239235 124.373856 
L 784.657001 124.412882 
L 785.353277 124.758954 
L 785.771043 124.960435 
L 786.467319 124.992524 
L 788.834659 124.651945 
L 789.948701 124.67762 
L 792.03753 124.630023 
L 793.430083 124.517511 
L 795.518912 124.345712 
L 797.746997 124.644843 
L 800.810613 125.049907 
L 809.583695 124.78772 
L 841.194643 124.855621 
L 843.422727 124.855621 
L 843.422727 124.855621 
" clip-path="url(#p5083486ccf)" style="fill: none; stroke: #12c8e6; stroke-width: 2; stroke-linecap: square"/>
   </g>
   <g id="text_3">
    <!-- Daubechies 4 (db4) -->
    <g style="fill: #12c8e6" transform="translate(663.823438 18.192) scale(0.1 -0.1)">
     <defs>
      <path id="DejaVuSans-Bold-34" d="M 2356 3675 
L 1038 1722 
L 2356 1722 
L 2356 3675 
z
M 2156 4666 
L 3494 4666 
L 3494 1722 
L 4159 1722 
L 4159 850 
L 3494 850 
L 3494 0 
L 2356 0 
L 2356 850 
L 288 850 
L 288 1881 
L 2156 4666 
z
" transform="scale(0.015625)"/>
     </defs>
     <use xlink:href="#DejaVuSans-Bold-44"/>
     <use xlink:href="#DejaVuSans-Bold-61" transform="translate(83.007812 0)"/>
     <use xlink:href="#DejaVuSans-Bold-75" transform="translate(150.488281 0)"/>
     <use xlink:href="#DejaVuSans-Bold-62" transform="translate(221.679688 0)"/>
     <use xlink:href="#DejaVuSans-Bold-65" transform="translate(293.261719 0)"/>
     <use xlink:href="#DejaVuSans-Bold-63" transform="translate(361.083984 0)"/>
     <use xlink:href="#DejaVuSans-Bold-68" transform="translate(420.361328 0)"/>
     <use xlink:href="#DejaVuSans-Bold-69" transform="translate(491.552734 0)"/>
     <use xlink:href="#DejaVuSans-Bold-65" transform="translate(525.830078 0)"/>
     <use xlink:href="#DejaVuSans-Bold-73" transform="translate(593.652344 0)"/>
     <use xlink:href="#DejaVuSans-Bold-20" transform="translate(653.173828 0)"/>
     <use xlink:href="#DejaVuSans-Bold-34" transform="translate(687.988281 0)"/>
     <use xlink:href="#DejaVuSans-Bold-20" transform="translate(757.568359 0)"/>
     <use xlink:href="#DejaVuSans-Bold-28" transform="translate(792.382812 0)"/>
     <use xlink:href="#DejaVuSans-Bold-64" transform="translate(838.085938 0)"/>
     <use xlink:href="#DejaVuSans-Bold-62" transform="translate(909.667969 0)"/>
     <use xlink:href="#DejaVuSans-Bold-34" transform="translate(981.25 0)"/>
     <use xlink:href="#DejaVuSans-Bold-29" transform="translate(1050.830078 0)"/>
    </g>
   </g>
  </g>
  <g id="axes_4">
   <g id="line2d_4">
    <path d="M 879.177273 119.332491 
L 879.827131 120.443574 
L 880.801918 121.256944 
L 882.101634 122.070313 
L 883.07642 122.527571 
L 884.376136 123.291578 
L 885.025994 123.362316 
L 886.975568 124.053163 
L 888.925142 124.907748 
L 889.575 125.178359 
L 890.224858 125.150371 
L 892.174432 125.545039 
L 893.799077 126.020366 
L 895.748651 126.632976 
L 899.322869 127.730357 
L 899.972727 127.927573 
L 900.622585 127.827312 
L 902.572159 128.005162 
L 904.196804 128.299806 
L 905.821449 128.62486 
L 921.093111 131.843406 
L 922.067898 131.76251 
L 928.241548 132.371686 
L 934.415199 133.256315 
L 944.163068 134.822821 
L 962.359091 137.814949 
L 963.008949 128.000786 
L 963.983736 120.89758 
L 964.633594 116.700538 
L 964.958523 114.506597 
L 965.283452 113.847282 
L 965.608381 112.776765 
L 967.233026 104.905835 
L 967.557955 103.313935 
L 967.882884 103.256661 
L 968.207813 102.788186 
L 969.182599 99.958314 
L 970.807244 94.245663 
L 972.756818 87.314881 
L 973.081747 87.698332 
L 973.406676 87.670581 
L 974.056534 86.902857 
L 974.706392 85.533092 
L 975.35625 84.464347 
L 976.331037 81.913884 
L 977.630753 79.077873 
L 977.955682 78.367423 
L 978.930469 75.33301 
L 980.555114 70.979968 
L 982.179759 66.951677 
L 983.154545 64.46238 
L 983.479474 65.168463 
L 983.804403 65.463345 
L 984.454261 65.340887 
L 985.104119 64.616387 
L 985.753977 64.192909 
L 986.403835 63.027684 
L 988.353409 60.677048 
L 989.003267 59.189191 
L 990.952841 55.870656 
L 992.252557 53.975141 
L 993.552273 51.934131 
L 994.52706 49.513341 
L 995.826776 46.850229 
L 997.126491 44.423301 
L 1001.025639 37.347058 
L 1003.95 31.997739 
L 1004.599858 51.248405 
L 1005.574645 64.431069 
L 1006.224503 72.110337 
L 1006.549432 76.146538 
L 1006.874361 77.021374 
L 1007.19929 78.743295 
L 1008.499006 89.805588 
L 1009.148864 95.336734 
L 1009.473793 94.971351 
L 1009.798722 95.453054 
L 1010.773509 99.83255 
L 1012.073224 107.008029 
L 1013.048011 113.142514 
L 1014.347727 120.561264 
L 1014.672656 119.287978 
L 1014.997585 118.861778 
L 1015.322514 119.282662 
L 1015.647443 119.476571 
L 1016.297301 121.331583 
L 1016.947159 122.566485 
L 1017.597017 125.3294 
L 1019.546591 131.259344 
L 1020.196449 134.68689 
L 1022.146023 142.610728 
L 1023.445739 147.240584 
L 1024.745455 152.170164 
L 1025.070384 150.232247 
L 1025.395313 149.141415 
L 1025.720241 148.897668 
L 1026.04517 148.426946 
L 1026.370099 148.803309 
L 1026.695028 148.952695 
L 1027.344886 148.858336 
L 1027.994744 150.291988 
L 1028.969531 151.315736 
L 1029.944318 152.234144 
L 1030.594176 154.332428 
L 1032.218821 157.620618 
L 1032.868679 158.689363 
L 1033.843466 160.23981 
L 1035.143182 162.510865 
L 1035.79304 165.095693 
L 1037.742614 170.491374 
L 1038.717401 172.666297 
L 1041.316832 178.587728 
L 1042.941477 182.156149 
L 1045.540909 188.112512 
L 1046.190767 174.110925 
L 1047.165554 164.992862 
L 1047.815412 159.754114 
L 1048.140341 156.985882 
L 1048.46527 156.611703 
L 1048.790199 155.596039 
L 1049.764986 150.326882 
L 1050.739773 144.76001 
L 1051.064702 145.325029 
L 1051.389631 145.248564 
L 1052.039489 143.984549 
L 1052.689347 141.781337 
L 1053.339205 140.047723 
L 1054.313991 135.969421 
L 1055.613707 131.412486 
L 1055.938636 130.270994 
L 1056.263565 131.523553 
L 1056.588494 132.134629 
L 1056.913423 132.10422 
L 1057.238352 132.245696 
L 1057.88821 131.417565 
L 1058.538068 131.059033 
L 1059.187926 129.543361 
L 1060.812571 127.236581 
L 1061.1375 126.78263 
L 1061.787358 124.763643 
L 1063.736932 120.492967 
L 1064.711719 118.753626 
L 1066.336364 115.560318 
L 1066.661293 117.316192 
L 1066.986222 118.430582 
L 1067.63608 119.548279 
L 1067.961009 119.551586 
L 1068.285938 119.726777 
L 1068.935795 120.374875 
L 1069.260724 120.034411 
L 1069.585653 119.865833 
L 1070.56044 119.955525 
L 1071.535227 120.12499 
L 1072.185085 119.112633 
L 1073.159872 118.447353 
L 1074.459588 117.831436 
L 1075.434375 117.522268 
L 1076.734091 116.955714 
L 1077.383949 115.574905 
L 1078.683665 114.004143 
L 1079.333523 113.218762 
L 1079.983381 112.743436 
L 1082.257884 110.691619 
L 1083.23267 110.032067 
L 1087.131818 106.794237 
L 1087.781676 110.401405 
L 1088.756463 112.627764 
L 1089.406321 113.886937 
L 1089.73125 114.55641 
L 1090.056179 114.584398 
L 1090.381108 114.784272 
L 1091.680824 116.430851 
L 1092.330682 117.25414 
L 1092.655611 117.030471 
L 1092.98054 116.978687 
L 1093.955327 117.418764 
L 1095.255043 118.276655 
L 1096.22983 119.072842 
L 1097.529545 119.980097 
L 1098.179403 119.336192 
L 1099.15419 119.22359 
L 1100.453906 119.344577 
L 1101.428693 119.588087 
L 1102.728409 119.758437 
L 1103.378267 120.154877 
L 1105.327841 120.865565 
L 1106.952486 121.311369 
L 1107.927273 121.609083 
L 1108.577131 120.695452 
L 1109.551918 120.178262 
L 1110.851634 119.759798 
L 1111.82642 119.598719 
L 1113.126136 119.229618 
L 1113.775994 119.356333 
L 1115.725568 119.257844 
L 1117.350213 119.029334 
L 1118.325 118.922459 
L 1118.974858 119.1479 
L 1120.924432 119.345591 
L 1122.549077 119.363896 
L 1124.173722 119.351793 
L 1128.722727 119.332491 
L 1128.722727 119.332491 
" clip-path="url(#p8f352e0f6f)" style="fill: none; stroke: #5af8c8; stroke-width: 2; stroke-linecap: square"/>
   </g>
   <g id="text_4">
    <!-- Symlet 2 (sym2) -->
    <g style="fill: #5af8c8" transform="translate(957.929688 18.192) scale(0.1 -0.1)">
     <defs>
      <path id="DejaVuSans-Bold-53" d="M 3834 4519 
L 3834 3531 
Q 3450 3703 3084 3790 
Q 2719 3878 2394 3878 
Q 1963 3878 1756 3759 
Q 1550 3641 1550 3391 
Q 1550 3203 1689 3098 
Q 1828 2994 2194 2919 
L 2706 2816 
Q 3484 2659 3812 2340 
Q 4141 2022 4141 1434 
Q 4141 663 3683 286 
Q 3225 -91 2284 -91 
Q 1841 -91 1394 -6 
Q 947 78 500 244 
L 500 1259 
Q 947 1022 1364 901 
Q 1781 781 2169 781 
Q 2563 781 2772 912 
Q 2981 1044 2981 1288 
Q 2981 1506 2839 1625 
Q 2697 1744 2272 1838 
L 1806 1941 
Q 1106 2091 782 2419 
Q 459 2747 459 3303 
Q 459 4000 909 4375 
Q 1359 4750 2203 4750 
Q 2588 4750 2994 4692 
Q 3400 4634 3834 4519 
z
" transform="scale(0.015625)"/>
      <path id="DejaVuSans-Bold-79" d="M 78 3500 
L 1197 3500 
L 2138 1125 
L 2938 3500 
L 4056 3500 
L 2584 -331 
Q 2363 -916 2067 -1148 
Q 1772 -1381 1288 -1381 
L 641 -1381 
L 641 -647 
L 991 -647 
Q 1275 -647 1404 -556 
Q 1534 -466 1606 -231 
L 1638 -134 
L 78 3500 
z
" transform="scale(0.015625)"/>
      <path id="DejaVuSans-Bold-6d" d="M 3781 2919 
Q 3994 3244 4286 3414 
Q 4578 3584 4928 3584 
Q 5531 3584 5847 3212 
Q 6163 2841 6163 2131 
L 6163 0 
L 5038 0 
L 5038 1825 
Q 5041 1866 5042 1909 
Q 5044 1953 5044 2034 
Q 5044 2406 4934 2573 
Q 4825 2741 4581 2741 
Q 4263 2741 4089 2478 
Q 3916 2216 3909 1719 
L 3909 0 
L 2784 0 
L 2784 1825 
Q 2784 2406 2684 2573 
Q 2584 2741 2328 2741 
Q 2006 2741 1831 2477 
Q 1656 2213 1656 1722 
L 1656 0 
L 531 0 
L 531 3500 
L 1656 3500 
L 1656 2988 
Q 1863 3284 2130 3434 
Q 2397 3584 2719 3584 
Q 3081 3584 3359 3409 
Q 3638 3234 3781 2919 
z
" transform="scale(0.015625)"/>
      <path id="DejaVuSans-Bold-6c" d="M 538 4863 
L 1656 4863 
L 1656 0 
L 538 0 
L 538 4863 
z
" transform="scale(0.015625)"/>
      <path id="DejaVuSans-Bold-74" d="M 1759 4494 
L 1759 3500 
L 2913 3500 
L 2913 2700 
L 1759 2700 
L 1759 1216 
Q 1759 972 1856 886 
Q 1953 800 2241 800 
L 2816 800 
L 2816 0 
L 1856 0 
Q 1194 0 917 276 
Q 641 553 641 1216 
L 641 2700 
L 84 2700 
L 84 3500 
L 641 3500 
L 641 4494 
L 1759 4494 
z
" transform="scale(0.015625)"/>
     </defs>
     <use xlink:href="#DejaVuSans-Bold-53"/>
     <use xlink:href="#DejaVuSans-Bold-79" transform="translate(72.021484 0)"/>
     <use xlink:href="#DejaVuSans-Bold-6d" transform="translate(137.207031 0)"/>
     <use xlink:href="#DejaVuSans-Bold-6c" transform="translate(241.40625 0)"/>
     <use xlink:href="#DejaVuSans-Bold-65" transform="translate(275.683594 0)"/>
     <use xlink:href="#DejaVuSans-Bold-74" transform="translate(343.505859 0)"/>
     <use xlink:href="#DejaVuSans-Bold-20" transform="translate(391.308594 0)"/>
     <use xlink:href="#DejaVuSans-Bold-32" transform="translate(426.123047 0)"/>
     <use xlink:href="#DejaVuSans-Bold-20" transform="translate(495.703125 0)"/>
     <use xlink:href="#DejaVuSans-Bold-28" transform="translate(530.517578 0)"/>
     <use xlink:href="#DejaVuSans-Bold-73" transform="translate(576.220703 0)"/>
     <use xlink:href="#DejaVuSans-Bold-79" transform="translate(635.742188 0)"/>
     <use xlink:href="#DejaVuSans-Bold-6d" transform="translate(700.927734 0)"/>
     <use xlink:href="#DejaVuSans-Bold-32" transform="translate(805.126953 0)"/>
     <use xlink:href="#DejaVuSans-Bold-29" transform="translate(874.707031 0)"/>
    </g>
   </g>
  </g>
  <g id="axes_5">
   <g id="line2d_5">
    <path d="M 23.277273 317.458875 
L 57.828054 317.348924 
L 61.185653 317.308338 
L 63.785085 317.451422 
L 66.167898 317.831127 
L 68.442401 318.082381 
L 73.966193 318.308688 
L 76.132386 318.0702 
L 77.648722 317.669498 
L 78.731818 317.156707 
L 81.547869 315.759264 
L 83.822372 314.971128 
L 86.638423 314.14513 
L 88.046449 313.979833 
L 89.671094 313.979821 
L 91.079119 314.257534 
L 92.053906 314.67094 
L 94.00348 315.963197 
L 95.628125 316.948805 
L 97.36108 317.77328 
L 98.769105 318.632967 
L 101.260227 320.378431 
L 102.668253 320.854145 
L 103.42642 320.958417 
L 104.509517 320.798168 
L 105.159375 320.505452 
L 105.809233 319.975232 
L 106.459091 319.099377 
L 108.300355 316.661157 
L 109.166832 315.800212 
L 109.600071 315.611023 
L 110.574858 315.324098 
L 111.982884 314.606847 
L 112.741051 313.990441 
L 114.474006 312.029382 
L 114.798935 311.988565 
L 115.557102 312.189003 
L 116.31527 312.630132 
L 116.965128 313.191248 
L 117.398366 313.899314 
L 118.264844 315.919329 
L 118.806392 317.649331 
L 119.45625 320.477841 
L 119.997798 323.801754 
L 122.055682 337.800965 
L 123.138778 343.761291 
L 123.788636 346.110779 
L 128.012713 360.020179 
L 128.445952 360.670236 
L 128.770881 360.712523 
L 129.312429 360.478842 
L 129.853977 359.916475 
L 130.720455 358.516439 
L 131.153693 357.127609 
L 131.803551 353.823232 
L 132.453409 349.562562 
L 133.103267 343.502467 
L 133.753125 335.026579 
L 136.569176 290.34212 
L 137.543963 278.186983 
L 139.818466 254.143428 
L 141.443111 239.965413 
L 142.201278 235.029674 
L 142.742827 232.813343 
L 143.500994 230.620057 
L 144.367472 228.826047 
L 144.692401 228.488193 
L 144.90902 228.527289 
L 145.125639 228.863628 
L 145.558878 230.056896 
L 146.100426 232.35751 
L 146.533665 235.298583 
L 147.075213 240.393739 
L 147.616761 247.794448 
L 151.19098 308.524401 
L 153.573793 340.488248 
L 154.765199 353.609003 
L 155.956605 364.228733 
L 156.931392 370.956601 
L 158.664347 381.084079 
L 159.205895 383.047981 
L 159.747443 384.240501 
L 160.072372 384.581036 
L 160.288991 384.548582 
L 160.61392 384.204948 
L 160.938849 383.478717 
L 161.263778 382.204015 
L 161.697017 379.383674 
L 165.921094 348.65205 
L 167.978977 336.210406 
L 168.628835 333.478163 
L 173.61108 315.810893 
L 174.585866 313.293389 
L 175.235724 312.033655 
L 175.993892 311.103571 
L 178.485014 308.539071 
L 182.059233 305.48957 
L 184.442045 302.256957 
L 185.416832 301.539048 
L 186.175 301.25077 
L 186.824858 301.218776 
L 187.691335 301.409054 
L 188.232884 301.706832 
L 188.882741 302.320935 
L 189.42429 303.143216 
L 193.431747 309.873243 
L 197.222585 315.278401 
L 198.630611 316.875752 
L 200.796804 318.992843 
L 201.879901 319.672551 
L 202.746378 319.93065 
L 203.396236 319.863161 
L 208.37848 318.877531 
L 209.786506 318.746412 
L 215.310298 318.767032 
L 221.808878 318.313312 
L 224.949858 317.937213 
L 228.524077 317.55181 
L 231.231818 317.468555 
L 239.355043 317.550731 
L 271.739631 317.458875 
L 272.822727 317.458875 
L 272.822727 317.458875 
" clip-path="url(#ped8936e302)" style="fill: none; stroke: #a4f89f; stroke-width: 2; stroke-linecap: square"/>
   </g>
   <g id="text_5">
    <!-- Symlet 5 (sym5) -->
    <g style="fill: #a4f89f" transform="translate(102.029687 214.673749) scale(0.1 -0.1)">
     <defs>
      <path id="DejaVuSans-Bold-35" d="M 678 4666 
L 3669 4666 
L 3669 3781 
L 1638 3781 
L 1638 3059 
Q 1775 3097 1914 3117 
Q 2053 3138 2203 3138 
Q 3056 3138 3531 2711 
Q 4006 2284 4006 1522 
Q 4006 766 3489 337 
Q 2972 -91 2053 -91 
Q 1656 -91 1267 -14 
Q 878 63 494 219 
L 494 1166 
Q 875 947 1217 837 
Q 1559 728 1863 728 
Q 2300 728 2551 942 
Q 2803 1156 2803 1522 
Q 2803 1891 2551 2103 
Q 2300 2316 1863 2316 
Q 1603 2316 1309 2248 
Q 1016 2181 678 2041 
L 678 4666 
z
" transform="scale(0.015625)"/>
     </defs>
     <use xlink:href="#DejaVuSans-Bold-53"/>
     <use xlink:href="#DejaVuSans-Bold-79" transform="translate(72.021484 0)"/>
     <use xlink:href="#DejaVuSans-Bold-6d" transform="translate(137.207031 0)"/>
     <use xlink:href="#DejaVuSans-Bold-6c" transform="translate(241.40625 0)"/>
     <use xlink:href="#DejaVuSans-Bold-65" transform="translate(275.683594 0)"/>
     <use xlink:href="#DejaVuSans-Bold-74" transform="translate(343.505859 0)"/>
     <use xlink:href="#DejaVuSans-Bold-20" transform="translate(391.308594 0)"/>
     <use xlink:href="#DejaVuSans-Bold-35" transform="translate(426.123047 0)"/>
     <use xlink:href="#DejaVuSans-Bold-20" transform="translate(495.703125 0)"/>
     <use xlink:href="#DejaVuSans-Bold-28" transform="translate(530.517578 0)"/>
     <use xlink:href="#DejaVuSans-Bold-73" transform="translate(576.220703 0)"/>
     <use xlink:href="#DejaVuSans-Bold-79" transform="translate(635.742188 0)"/>
     <use xlink:href="#DejaVuSans-Bold-6d" transform="translate(700.927734 0)"/>
     <use xlink:href="#DejaVuSans-Bold-35" transform="translate(805.126953 0)"/>
     <use xlink:href="#DejaVuSans-Bold-29" transform="translate(874.707031 0)"/>
    </g>
   </g>
  </g>
  <g id="axes_6">
   <g id="line2d_6">
    <path d="M 308.577273 282.938677 
L 330.4125 282.830657 
L 334.11669 282.748084 
L 339.965412 283.145602 
L 346.78892 283.402961 
L 351.077983 283.857363 
L 353.027557 284.119129 
L 356.926705 285.015284 
L 358.096449 285.699661 
L 358.291406 285.948236 
L 358.876278 285.387218 
L 359.656108 284.908662 
L 360.24098 284.629897 
L 362.775426 283.647879 
L 369.598935 281.344864 
L 370.573722 280.857442 
L 370.768679 280.702921 
L 371.548509 280.828165 
L 374.472869 280.703752 
L 377.39723 280.344447 
L 379.151847 280.513559 
L 380.516548 280.626169 
L 381.491335 280.901825 
L 381.686293 280.915709 
L 382.856037 281.809476 
L 383.245952 282.595206 
L 383.830824 281.222968 
L 384.415696 280.272733 
L 385.195526 279.188326 
L 387.729972 276.251845 
L 388.704759 275.118186 
L 389.679545 273.941147 
L 390.459375 273.523057 
L 392.019034 272.406938 
L 392.993821 271.74329 
L 393.968608 271.210845 
L 394.358523 271.047539 
L 395.33331 270.960508 
L 395.723224 271.381768 
L 396.503054 269.108506 
L 399.0375 263.82947 
L 400.012287 262.419362 
L 400.792116 261.318998 
L 401.571946 260.45822 
L 401.766903 260.405815 
L 401.961861 260.48411 
L 402.74169 257.409102 
L 404.106392 253.261225 
L 404.691264 251.837184 
L 405.081179 251.30952 
L 405.861009 247.062984 
L 406.640838 244.169806 
L 407.810582 234.982318 
L 408.200497 228.479488 
L 408.785369 236.716039 
L 409.175284 240.437486 
L 410.345028 248.909707 
L 411.124858 254.129878 
L 411.514773 256.421771 
L 412.684517 261.967954 
L 413.269389 265.079285 
L 414.244176 270.729365 
L 414.439134 272.12459 
L 415.024006 273.647957 
L 415.998793 276.847638 
L 419.118111 288.4236 
L 420.482813 292.686351 
L 420.67777 293.053548 
L 421.652557 298.541447 
L 424.38196 311.942862 
L 426.526491 320.543621 
L 426.916406 321.202462 
L 427.696236 327.701065 
L 429.255895 338.287345 
L 430.035724 342.095806 
L 431.010511 352.026883 
L 431.790341 359.357459 
L 432.765128 373.480298 
L 433.155043 384.594261 
L 433.544957 375.565577 
L 434.324787 365.472815 
L 434.909659 359.31267 
L 435.884446 351.456962 
L 436.469318 346.752342 
L 437.249148 342.560566 
L 438.613849 334.111243 
L 439.588636 327.652289 
L 440.173509 325.852056 
L 442.707955 315.617091 
L 446.02223 300.808361 
L 448.556676 290.691191 
L 449.531463 286.980778 
L 451.091122 281.206121 
L 451.870952 279.245061 
L 452.845739 273.103963 
L 454.405398 264.851413 
L 455.185227 260.841315 
L 456.160014 253.845163 
L 456.744886 249.656873 
L 457.719673 239.752902 
L 458.109588 232.416614 
L 458.499503 237.519285 
L 459.084375 241.77493 
L 460.059162 246.53898 
L 460.838991 249.574592 
L 461.423864 251.771316 
L 462.008736 252.933283 
L 463.568395 256.925627 
L 464.543182 259.691022 
L 464.933097 260.000269 
L 465.323011 260.431545 
L 467.467543 263.242053 
L 468.832244 265.68712 
L 469.612074 267.141569 
L 470.196946 268.353564 
L 470.586861 269.450625 
L 470.976776 269.401807 
L 471.951563 269.855563 
L 472.341477 270.104004 
L 476.63054 273.343571 
L 476.825497 273.413041 
L 477.800284 274.710333 
L 479.554901 276.680923 
L 480.139773 277.337616 
L 481.309517 278.946878 
L 481.699432 279.529325 
L 482.674219 281.350838 
L 483.064134 282.599985 
L 483.454048 281.930249 
L 484.233878 281.349567 
L 484.81875 281.048251 
L 485.793537 280.77461 
L 486.378409 280.611793 
L 487.743111 280.573169 
L 489.692685 280.3764 
L 492.422088 280.647451 
L 495.736364 280.584765 
L 496.906108 280.980413 
L 498.855682 281.489743 
L 502.559872 282.299012 
L 506.848935 283.565043 
L 507.628764 283.935498 
L 508.018679 284.267585 
L 508.798509 283.921125 
L 511.527912 283.496201 
L 520.885866 282.965891 
L 525.759801 282.98942 
L 558.122727 282.938677 
L 558.122727 282.938677 
" clip-path="url(#paf4a3d2a84)" style="fill: none; stroke: #ecc86f; stroke-width: 2; stroke-linecap: square"/>
   </g>
   <g id="text_6">
    <!-- Coiflet 1 (coif1) -->
    <g style="fill: #ecc86f" transform="translate(389.563281 214.673749) scale(0.1 -0.1)">
     <defs>
      <path id="DejaVuSans-Bold-43" d="M 4288 256 
Q 3956 84 3597 -3 
Q 3238 -91 2847 -91 
Q 1681 -91 1000 561 
Q 319 1213 319 2328 
Q 319 3447 1000 4098 
Q 1681 4750 2847 4750 
Q 3238 4750 3597 4662 
Q 3956 4575 4288 4403 
L 4288 3438 
Q 3953 3666 3628 3772 
Q 3303 3878 2944 3878 
Q 2300 3878 1931 3465 
Q 1563 3053 1563 2328 
Q 1563 1606 1931 1193 
Q 2300 781 2944 781 
Q 3303 781 3628 887 
Q 3953 994 4288 1222 
L 4288 256 
z
" transform="scale(0.015625)"/>
      <path id="DejaVuSans-Bold-6f" d="M 2203 2784 
Q 1831 2784 1636 2517 
Q 1441 2250 1441 1747 
Q 1441 1244 1636 976 
Q 1831 709 2203 709 
Q 2569 709 2762 976 
Q 2956 1244 2956 1747 
Q 2956 2250 2762 2517 
Q 2569 2784 2203 2784 
z
M 2203 3584 
Q 3106 3584 3614 3096 
Q 4122 2609 4122 1747 
Q 4122 884 3614 396 
Q 3106 -91 2203 -91 
Q 1297 -91 786 396 
Q 275 884 275 1747 
Q 275 2609 786 3096 
Q 1297 3584 2203 3584 
z
" transform="scale(0.015625)"/>
      <path id="DejaVuSans-Bold-66" d="M 2841 4863 
L 2841 4128 
L 2222 4128 
Q 1984 4128 1890 4042 
Q 1797 3956 1797 3744 
L 1797 3500 
L 2753 3500 
L 2753 2700 
L 1797 2700 
L 1797 0 
L 678 0 
L 678 2700 
L 122 2700 
L 122 3500 
L 678 3500 
L 678 3744 
Q 678 4316 997 4589 
Q 1316 4863 1984 4863 
L 2841 4863 
z
" transform="scale(0.015625)"/>
      <path id="DejaVuSans-Bold-31" d="M 750 831 
L 1813 831 
L 1813 3847 
L 722 3622 
L 722 4441 
L 1806 4666 
L 2950 4666 
L 2950 831 
L 4013 831 
L 4013 0 
L 750 0 
L 750 831 
z
" transform="scale(0.015625)"/>
     </defs>
     <use xlink:href="#DejaVuSans-Bold-43"/>
     <use xlink:href="#DejaVuSans-Bold-6f" transform="translate(73.388672 0)"/>
     <use xlink:href="#DejaVuSans-Bold-69" transform="translate(142.089844 0)"/>
     <use xlink:href="#DejaVuSans-Bold-66" transform="translate(176.367188 0)"/>
     <use xlink:href="#DejaVuSans-Bold-6c" transform="translate(219.873047 0)"/>
     <use xlink:href="#DejaVuSans-Bold-65" transform="translate(254.150391 0)"/>
     <use xlink:href="#DejaVuSans-Bold-74" transform="translate(321.972656 0)"/>
     <use xlink:href="#DejaVuSans-Bold-20" transform="translate(369.775391 0)"/>
     <use xlink:href="#DejaVuSans-Bold-31" transform="translate(404.589844 0)"/>
     <use xlink:href="#DejaVuSans-Bold-20" transform="translate(474.169922 0)"/>
     <use xlink:href="#DejaVuSans-Bold-28" transform="translate(508.984375 0)"/>
     <use xlink:href="#DejaVuSans-Bold-63" transform="translate(554.6875 0)"/>
     <use xlink:href="#DejaVuSans-Bold-6f" transform="translate(613.964844 0)"/>
     <use xlink:href="#DejaVuSans-Bold-69" transform="translate(682.666016 0)"/>
     <use xlink:href="#DejaVuSans-Bold-66" transform="translate(716.943359 0)"/>
     <use xlink:href="#DejaVuSans-Bold-31" transform="translate(760.449219 0)"/>
     <use xlink:href="#DejaVuSans-Bold-29" transform="translate(830.029297 0)"/>
    </g>
   </g>
  </g>
  <g id="axes_7">
   <g id="line2d_7">
    <path d="M 593.877273 287.665271 
L 660.277465 287.77352 
L 665.896825 287.986027 
L 668.07576 287.846833 
L 671.573525 287.338249 
L 674.727248 286.794587 
L 678.569055 285.917502 
L 680.117246 285.835468 
L 681.378735 285.959101 
L 682.410862 286.276267 
L 683.729692 286.932058 
L 685.908627 288.368 
L 688.030222 289.884204 
L 689.234371 290.977975 
L 692.904157 294.875307 
L 693.649582 295.123096 
L 694.73905 295.217881 
L 695.771177 295.172825 
L 696.917985 294.852278 
L 698.122134 294.256788 
L 698.638198 293.682759 
L 700.071708 292.06096 
L 700.530431 292.035674 
L 701.218516 292.019224 
L 701.79192 291.700125 
L 702.250643 291.182106 
L 702.652026 290.392039 
L 703.22543 288.713154 
L 703.684154 286.566331 
L 704.200217 282.807282 
L 705.060323 274.721926 
L 707.067238 255.223315 
L 709.475535 232.349862 
L 709.934258 230.11401 
L 710.2783 229.322635 
L 710.450322 229.27032 
L 710.622343 229.508727 
L 710.851705 230.351009 
L 711.138407 232.565171 
L 711.59713 238.780639 
L 712.227874 250.693437 
L 713.489363 279.860343 
L 714.980214 318.447303 
L 716.471065 355.723014 
L 717.445851 375.266816 
L 717.961915 382.092745 
L 718.305958 384.415552 
L 718.420638 384.594261 
L 718.477979 384.547463 
L 718.65 383.979927 
L 718.936702 381.870759 
L 719.338085 376.978271 
L 719.911489 367.131894 
L 721.000957 343.274188 
L 722.262446 310.032909 
L 724.384041 256.179335 
L 725.244147 238.350585 
L 725.760211 231.295341 
L 726.104253 229.139909 
L 726.390955 228.497976 
L 726.562976 228.536686 
L 726.792338 228.929049 
L 727.07904 229.943854 
L 727.537763 232.768225 
L 728.225848 238.462971 
L 728.971273 246.660825 
L 730.576805 264.548318 
L 733.157123 290.538214 
L 733.673187 292.791808 
L 734.189251 294.04101 
L 734.590633 294.540558 
L 734.992016 294.662818 
L 735.393399 294.542856 
L 735.852122 294.172781 
L 736.94159 292.954492 
L 737.457654 292.90874 
L 738.833824 292.936187 
L 740.611376 292.19195 
L 741.586163 292.230973 
L 742.61829 292.413152 
L 743.822439 292.632949 
L 744.281162 292.533851 
L 744.969247 292.115759 
L 746.460098 290.889145 
L 748.409672 289.41169 
L 750.359245 288.437576 
L 752.36616 287.610715 
L 754.029032 287.121231 
L 755.749244 286.856473 
L 757.641477 286.800094 
L 759.533711 286.950687 
L 764.464986 287.499682 
L 772.549983 287.68592 
L 783.674022 287.667775 
L 841.759855 287.665271 
L 843.422727 287.665271 
L 843.422727 287.665271 
" clip-path="url(#pfbcc599dbb)" style="fill: none; stroke: #ff6d38; stroke-width: 2; stroke-linecap: square"/>
   </g>
   <g id="text_7">
    <!-- Coiflet 3 (coif3) -->
    <g style="fill: #ff6d38" transform="translate(674.863281 214.673749) scale(0.1 -0.1)">
     <defs>
      <path id="DejaVuSans-Bold-33" d="M 2981 2516 
Q 3453 2394 3698 2092 
Q 3944 1791 3944 1325 
Q 3944 631 3412 270 
Q 2881 -91 1863 -91 
Q 1503 -91 1142 -33 
Q 781 25 428 141 
L 428 1069 
Q 766 900 1098 814 
Q 1431 728 1753 728 
Q 2231 728 2486 893 
Q 2741 1059 2741 1369 
Q 2741 1688 2480 1852 
Q 2219 2016 1709 2016 
L 1228 2016 
L 1228 2791 
L 1734 2791 
Q 2188 2791 2409 2933 
Q 2631 3075 2631 3366 
Q 2631 3634 2415 3781 
Q 2200 3928 1806 3928 
Q 1516 3928 1219 3862 
Q 922 3797 628 3669 
L 628 4550 
Q 984 4650 1334 4700 
Q 1684 4750 2022 4750 
Q 2931 4750 3382 4451 
Q 3834 4153 3834 3553 
Q 3834 3144 3618 2883 
Q 3403 2622 2981 2516 
z
" transform="scale(0.015625)"/>
     </defs>
     <use xlink:href="#DejaVuSans-Bold-43"/>
     <use xlink:href="#DejaVuSans-Bold-6f" transform="translate(73.388672 0)"/>
     <use xlink:href="#DejaVuSans-Bold-69" transform="translate(142.089844 0)"/>
     <use xlink:href="#DejaVuSans-Bold-66" transform="translate(176.367188 0)"/>
     <use xlink:href="#DejaVuSans-Bold-6c" transform="translate(219.873047 0)"/>
     <use xlink:href="#DejaVuSans-Bold-65" transform="translate(254.150391 0)"/>
     <use xlink:href="#DejaVuSans-Bold-74" transform="translate(321.972656 0)"/>
     <use xlink:href="#DejaVuSans-Bold-20" transform="translate(369.775391 0)"/>
     <use xlink:href="#DejaVuSans-Bold-33" transform="translate(404.589844 0)"/>
     <use xlink:href="#DejaVuSans-Bold-20" transform="translate(474.169922 0)"/>
     <use xlink:href="#DejaVuSans-Bold-28" transform="translate(508.984375 0)"/>
     <use xlink:href="#DejaVuSans-Bold-63" transform="translate(554.6875 0)"/>
     <use xlink:href="#DejaVuSans-Bold-6f" transform="translate(613.964844 0)"/>
     <use xlink:href="#DejaVuSans-Bold-69" transform="translate(682.666016 0)"/>
     <use xlink:href="#DejaVuSans-Bold-66" transform="translate(716.943359 0)"/>
     <use xlink:href="#DejaVuSans-Bold-33" transform="translate(760.449219 0)"/>
     <use xlink:href="#DejaVuSans-Bold-29" transform="translate(830.029297 0)"/>
    </g>
   </g>
  </g>
  <g id="axes_8">
   <g id="line2d_8">
    <path d="M 879.177273 296.010729 
L 973.971307 295.901308 
L 975.825 295.619702 
L 976.831747 295.768347 
L 977.726634 296.090327 
L 979.772088 296.914046 
L 980.219531 296.923087 
L 980.619034 296.843028 
L 981.306179 296.488276 
L 981.913423 295.981333 
L 984.006818 294.11984 
L 984.614063 294.122563 
L 985.445028 294.781712 
L 986.244034 296.085137 
L 987.937926 299.2771 
L 988.54517 299.435081 
L 988.864773 299.240535 
L 990.271023 297.531828 
L 990.750426 296.473934 
L 991.197869 294.756584 
L 991.661293 292.186599 
L 992.540199 286.989337 
L 992.955682 286.125743 
L 993.163423 286.452919 
L 993.323224 287.059881 
L 993.499006 288.045529 
L 994.10625 293.723533 
L 994.905256 301.566511 
L 995.272798 302.946572 
L 995.416619 303.012859 
L 995.432599 302.987844 
L 995.5125 302.928433 
L 995.768182 302.256907 
L 996.519247 299.368642 
L 996.615128 299.371828 
L 996.631108 299.404951 
L 996.758949 299.768041 
L 996.91875 300.578364 
L 997.158452 302.672692 
L 997.765696 312.016123 
L 998.229119 318.811783 
L 998.484801 320.222795 
L 998.548722 320.176462 
L 998.756463 318.406939 
L 998.932244 315.316223 
L 999.315767 302.429722 
L 999.843111 274.268765 
L 1000.530256 237.480648 
L 1000.945739 228.518884 
L 1000.977699 228.479488 
L 1001.265341 233.145218 
L 1001.584943 248.427313 
L 1002.032386 284.35965 
L 1003.103054 374.958395 
L 1003.342756 383.160661 
L 1003.374716 383.696556 
L 1003.502557 384.594261 
L 1003.534517 384.486449 
L 1003.854119 375.912197 
L 1004.381463 338.171538 
L 1005.739773 232.15767 
L 1005.995455 228.479488 
L 1006.091335 228.854161 
L 1006.474858 238.679553 
L 1007.273864 282.788034 
L 1007.833168 309.41245 
L 1008.18473 317.989377 
L 1008.424432 320.176462 
L 1008.552273 320.143888 
L 1008.712074 319.115354 
L 1009.367259 309.186065 
L 1010.102344 300.271388 
L 1010.358026 299.371828 
L 1010.389986 299.319513 
L 1010.469886 299.399868 
L 1010.629688 299.750727 
L 1010.789489 300.361773 
L 1011.524574 302.994525 
L 1011.780256 302.806813 
L 1012.099858 301.364017 
L 1012.563281 297.158496 
L 1013.522088 287.756156 
L 1013.80973 286.452919 
L 1014.017472 286.125743 
L 1014.033452 286.145517 
L 1014.113352 286.160192 
L 1014.129332 286.17538 
L 1014.209233 286.288091 
L 1014.736577 288.591209 
L 1015.072159 290.672656 
L 1015.839205 295.044953 
L 1016.318608 296.73724 
L 1016.893892 297.824756 
L 1018.475923 299.446022 
L 1018.747585 299.447545 
L 1019.41875 298.800031 
L 1020.345597 296.891928 
L 1021.096662 295.403611 
L 1021.703906 294.589326 
L 1022.135369 294.236977 
L 1022.934375 294.112743 
L 1023.429759 294.3604 
L 1023.733381 294.604314 
L 1025.443253 296.324125 
L 1026.162358 296.768966 
L 1027.025284 296.932784 
L 1027.712429 296.788245 
L 1028.383594 296.498658 
L 1030.221307 295.747301 
L 1031.180114 295.619481 
L 1032.330682 295.757415 
L 1034.232315 296.079008 
L 1035.542685 296.056244 
L 1037.907741 296.011014 
L 1041.726989 296.007885 
L 1058.506108 296.01073 
L 1128.722727 296.010729 
L 1128.722727 296.010729 
" clip-path="url(#pf4d9826148)" style="fill: none; stroke: #ff0000; stroke-width: 2; stroke-linecap: square"/>
   </g>
   <g id="text_8">
    <!-- Discrete Meyer (dmey) -->
    <g style="fill: #ff0000" transform="translate(939.532031 214.673749) scale(0.1 -0.1)">
     <defs>
      <path id="DejaVuSans-Bold-4d" d="M 588 4666 
L 2119 4666 
L 3181 2169 
L 4250 4666 
L 5778 4666 
L 5778 0 
L 4641 0 
L 4641 3413 
L 3566 897 
L 2803 897 
L 1728 3413 
L 1728 0 
L 588 0 
L 588 4666 
z
" transform="scale(0.015625)"/>
     </defs>
     <use xlink:href="#DejaVuSans-Bold-44"/>
     <use xlink:href="#DejaVuSans-Bold-69" transform="translate(83.007812 0)"/>
     <use xlink:href="#DejaVuSans-Bold-73" transform="translate(117.285156 0)"/>
     <use xlink:href="#DejaVuSans-Bold-63" transform="translate(176.806641 0)"/>
     <use xlink:href="#DejaVuSans-Bold-72" transform="translate(236.083984 0)"/>
     <use xlink:href="#DejaVuSans-Bold-65" transform="translate(285.400391 0)"/>
     <use xlink:href="#DejaVuSans-Bold-74" transform="translate(353.222656 0)"/>
     <use xlink:href="#DejaVuSans-Bold-65" transform="translate(401.025391 0)"/>
     <use xlink:href="#DejaVuSans-Bold-20" transform="translate(468.847656 0)"/>
     <use xlink:href="#DejaVuSans-Bold-4d" transform="translate(503.662109 0)"/>
     <use xlink:href="#DejaVuSans-Bold-65" transform="translate(603.173828 0)"/>
     <use xlink:href="#DejaVuSans-Bold-79" transform="translate(670.996094 0)"/>
     <use xlink:href="#DejaVuSans-Bold-65" transform="translate(736.181641 0)"/>
     <use xlink:href="#DejaVuSans-Bold-72" transform="translate(804.003906 0)"/>
     <use xlink:href="#DejaVuSans-Bold-20" transform="translate(853.320312 0)"/>
     <use xlink:href="#DejaVuSans-Bold-28" transform="translate(888.134766 0)"/>
     <use xlink:href="#DejaVuSans-Bold-64" transform="translate(933.837891 0)"/>
     <use xlink:href="#DejaVuSans-Bold-6d" transform="translate(1005.419922 0)"/>
     <use xlink:href="#DejaVuSans-Bold-65" transform="translate(1109.619141 0)"/>
     <use xlink:href="#DejaVuSans-Bold-79" transform="translate(1177.441406 0)"/>
     <use xlink:href="#DejaVuSans-Bold-29" transform="translate(1242.626953 0)"/>
    </g>
   </g>
  </g>
 </g>
 <defs>
  <clipPath id="p66abc7743c">
   <rect x="10.8" y="24.192" width="274.5" height="171.726251"/>
  </clipPath>
  <clipPath id="p1e8c5f1dcc">
   <rect x="296.1" y="24.192" width="274.5" height="171.726251"/>
  </clipPath>
  <clipPath id="p5083486ccf">
   <rect x="581.4" y="24.192" width="274.5" height="171.726251"/>
  </clipPath>
  <clipPath id="p8f352e0f6f">
   <rect x="866.7" y="24.192" width="274.5" height="171.726251"/>
  </clipPath>
  <clipPath id="ped8936e302">
   <rect x="10.8" y="220.673749" width="274.5" height="171.726251"/>
  </clipPath>
  <clipPath id="paf4a3d2a84">
   <rect x="296.1" y="220.673749" width="274.5" height="171.726251"/>
  </clipPath>
  <clipPath id="pfbcc599dbb">
   <rect x="581.4" y="220.673749" width="274.5" height="171.726251"/>
  </clipPath>
  <clipPath id="pf4d9826148">
   <rect x="866.7" y="220.673749" width="274.5" height="171.726251"/>
  </clipPath>
 </defs>
</svg>
